<?xml version="1.0" standalone="no"?>
<!DOCTYPE svg PUBLIC "-//W3C//DTD SVG 20010904//EN"
 "http://www.w3.org/TR/2001/REC-SVG-20010904/DTD/svg10.dtd">
<svg version="1.0" xmlns="http://www.w3.org/2000/svg"
 width="512.000000pt" height="512.000000pt" viewBox="0 0 512.000000 512.000000"
 preserveAspectRatio="xMidYMid meet">

<g transform="translate(0.000000,512.000000) scale(0.100000,-0.100000)"
fill="#000000" stroke="none">
<path d="M2419 5110 c-239 -23 -471 -99 -646 -212 -382 -247 -542 -655 -453
-1149 10 -52 9 -67 -6 -103 -26 -63 -31 -237 -9 -311 37 -127 108 -218 192
-243 35 -11 40 -16 61 -79 69 -199 187 -390 330 -532 l95 -95 -11 -43 c-19
-69 -71 -167 -116 -218 -41 -46 -41 -46 -163 -70 -134 -27 -400 -105 -551
-161 -426 -159 -646 -376 -708 -702 -16 -86 -19 -344 -4 -423 61 -323 490
-570 1205 -693 923 -158 2038 -60 2620 231 133 67 214 124 295 209 127 134
156 231 147 489 -7 186 -29 282 -98 424 -44 91 -63 117 -138 191 -70 70 -104
95 -186 137 -233 119 -517 221 -810 293 -163 39 -171 42 -206 80 -40 43 -92
141 -113 212 l-14 48 59 51 c129 112 267 315 340 501 22 56 44 113 49 126 5
12 17 22 25 22 51 0 136 73 175 150 52 102 64 293 26 402 -15 44 -15 55 -2
127 75 395 -31 756 -293 1004 -218 205 -531 325 -891 340 -63 3 -154 2 -201
-3z m374 -161 c114 -17 222 -47 317 -88 370 -159 583 -519 555 -937 l-7 -101
-71 5 c-40 2 -75 7 -78 11 -3 3 -27 69 -54 146 -29 87 -57 150 -73 167 -33 36
-169 103 -252 124 -85 23 -225 23 -310 0 -66 -17 -180 -62 -350 -136 -245
-108 -443 -106 -622 7 -38 23 -82 30 -105 15 -17 -11 -64 -119 -103 -236 l-32
-98 -33 5 c-18 3 -49 2 -68 -3 -45 -10 -47 -5 -47 165 0 281 79 484 260 666
143 145 341 244 560 279 41 6 82 13 90 15 41 8 360 4 423 -6z m272 -824 c38
-8 101 -30 140 -48 l70 -34 38 -119 c92 -285 103 -300 200 -259 56 23 81 19
115 -20 37 -41 48 -85 45 -180 -1 -78 -21 -142 -58 -191 -23 -30 -31 -33 -82
-36 -67 -4 -66 -2 -112 -150 -95 -308 -290 -550 -533 -662 -119 -55 -187 -70
-328 -70 -100 0 -141 4 -203 22 -144 41 -269 116 -380 229 -129 130 -211 272
-279 478 -22 66 -47 128 -55 138 -11 11 -31 17 -63 17 -38 0 -51 5 -72 28 -61
65 -83 250 -40 344 27 61 57 77 115 59 78 -23 104 -24 124 -4 10 10 40 85 68
166 40 119 52 146 65 140 154 -70 337 -90 479 -54 47 11 134 44 195 72 330
153 391 168 551 134z m-750 -1904 c190 -58 427 -39 621 49 l60 27 23 -63 c24
-67 86 -170 129 -217 l26 -28 -19 -36 c-51 -94 -258 -279 -482 -430 l-113 -76
-97 65 c-226 150 -449 348 -497 440 l-20 36 31 35 c42 48 96 141 124 213 l24
61 60 -28 c33 -15 92 -36 130 -48z m1169 -334 c48 -13 50 -14 63 -62 19 -74
60 -300 68 -377 l7 -66 -33 -18 c-66 -33 -99 -67 -130 -130 -29 -58 -31 -70
-27 -137 8 -117 65 -209 159 -258 135 -68 321 -3 385 136 27 57 33 167 12 226
-28 83 -90 148 -165 174 -43 15 -46 21 -63 155 -6 52 -21 137 -31 189 -11 52
-18 96 -16 98 7 6 238 -78 348 -126 134 -60 228 -122 305 -203 72 -75 108
-133 140 -228 56 -166 53 -436 -5 -555 -84 -171 -350 -317 -749 -411 -248 -59
-663 -114 -979 -130 l-133 -7 0 580 0 580 79 51 c275 180 501 384 570 518 l22
42 62 -14 c34 -8 84 -21 111 -27z m-1639 -29 c76 -125 330 -348 560 -494 l75
-47 0 -580 0 -580 -127 7 c-452 23 -920 98 -1208 193 -276 91 -458 211 -525
347 -25 51 -33 84 -42 171 -19 195 14 378 90 503 102 169 280 285 616 401 115
40 118 40 112 19 -3 -13 -16 -77 -27 -143 -12 -66 -23 -125 -25 -131 -1 -7
-29 -24 -60 -38 -114 -52 -170 -115 -205 -225 -24 -77 -27 -222 -9 -350 10
-63 10 -88 0 -110 -16 -40 -5 -85 30 -120 49 -48 109 -48 160 -1 26 24 30 35
30 79 0 41 -5 56 -29 83 -25 29 -31 47 -41 131 -26 205 7 305 119 362 47 24
131 30 188 15 100 -29 154 -122 179 -312 13 -104 13 -108 -7 -143 -55 -92 43
-205 142 -164 63 26 90 120 49 172 -12 15 -20 40 -20 64 0 111 -46 296 -94
378 -45 76 -168 164 -231 165 -41 1 -44 10 -30 95 8 44 24 121 36 172 l22 92
96 22 c53 11 101 22 106 24 25 8 35 1 70 -57z m1943 -638 c80 -49 80 -180 0
-230 -73 -46 -179 -2 -197 81 -14 65 19 137 74 159 35 15 89 10 123 -10z"/>
</g>
</svg>
